#!OML:ASF H:\Terrain\Patient Classification 1\Animal1\Tuesday\Animal1.ASF
:FULLY-SPECIFIED
:DEGREES
1176
root 5.15083 16.6559 -3.24642 6.82336 -42.1249 -0.0228422
lowerback -2.66099 -1.24195 -1.2401
upperback -12.4437 -1.84872 1.91832
thorax -11.7464 -0.768154 2.92772
lowerneck -3.14126 2.29097 -2.70057
upperneck 4.76889 2.8621 6.50723
head 1.92176 1.53322 2.63792
rclavicle 8.94531e-015 -2.74323e-014
rhumerus -44.521 -26.4657 25.2182
rradius 29.3609
rwrist -64.635
rhand -12.1413 5.02168
rfingers 7.12502
rthumb 13.9208 -24.4923
lclavicle 8.94531e-015 -2.74323e-014
lhumerus -41.973 39.6763 -25.7972
lradius 27.1136
lwrist -0.162846
lhand 27.8561 48.0774
lfingers 7.12502
lthumb 51.7695 428.319
rfemur -22.2645 26.007 14.7657
rtibia 20.9565
rfoot -0.427343 -18.5394
rtoes -5.04827
lfemur -2.19149 -7.88316 -19.8123
ltibia 31.6412
lfoot -4.19347 5.74517
ltoes -5.39774
1177
root 5.15833 16.6516 -3.24122 6.83842 -42.1695 0.0484995
lowerback -2.73836 -1.1435 -1.31502
upperback -12.3805 -1.719 1.87356
thorax -11.632 -0.701449 2.90634
lowerneck -3.04216 2.15215 -2.74316
upperneck 4.27262 2.70863 6.34198
head 1.75097 1.44591 2.5744
rclavicle -1.05356e-014 -3.02153e-014
rhumerus -46.1944 -25.2461 27.1205
rradius 29.194
rwrist -64.9374
rhand -18.0476 4.85703
rfingers 7.12502
rthumb 8.22443 -24.9629
lclavicle -1.05356e-014 -3.02153e-014
lhumerus -44.0092 40.3402 -28.6082
lradius 26.8036
lwrist -2.27366
lhand 21.3026 50.0547
lfingers 7.12502
lthumb 45.7465 433.254
rfemur -22.3961 25.9267 14.6302
rtibia 21.0035
rfoot -0.315433 -18.4719
rtoes -5.88547
lfemur -2.03419 -8.01261 -19.973
ltibia 31.3327
lfoot -4.16109 6.0426
ltoes -8.08001
1178
root 5.16716 16.6454 -3.24079 6.8424 -42.2102 0.0751927
lowerback -2.74429 -1.09373 -1.40308
upperback -12.2805 -1.6516 1.86113
thorax -11.5132 -0.66142 2.93302
lowerneck -3.11458 2.08821 -2.75752
upperneck 3.86165 2.6459 6.28719
head 1.63427 1.41034 2.55082
rclavicle -8.94531e-015 3.97569e-015
rhumerus -47.4761 -23.3575 28.2805
rradius 29.0345
rwrist -66.2063
rhand -24.2396 4.41964
rfingers 7.12502
rthumb 2.24597 -25.5483
lclavicle -8.94531e-015 3.97569e-015
lhumerus -46.2321 40.9884 -31.6987
lradius 26.435
lwrist -4.19272
lhand 15.4196 52.3153
lfingers 7.12502
lthumb 40.2465 437.467
rfemur -22.4721 25.9684 14.5328
rtibia 20.9788
rfoot -0.249959 -18.4596
rtoes -6.93803
lfemur -1.85522 -8.00461 -20.1042
ltibia 31.0602
lfoot -3.98959 6.31663
ltoes -13.4581
1179
root 5.17745 16.6413 -3.23768 7.14749 -42.1686 -0.238075
lowerback -2.78251 -1.08731 -1.15959
upperback -12.3166 -1.62909 1.93048
thorax -11.5369 -0.670923 2.8709
lowerneck -3.24653 2.1521 -3.08331
upperneck 3.90633 2.73529 6.57737
head 1.66271 1.45859 2.71339
rclavicle -5.30755e-014 -3.65764e-014
rhumerus -48.7875 -22.6701 30.0976
rradius 28.6842
rwrist -66.1332
rhand -30.3123 5.29075
rfingers 7.12502
rthumb -3.61903 -24.6583
lclavicle -5.30755e-014 -3.65764e-014
lhumerus -48.6863 41.8715 -35.3983
lradius 25.9445
lwrist -6.42373
lhand 10.3404 54.9173
lfingers 7.12502
lthumb 35.4491 441.367
rfemur -22.5805 26.0244 14.6724
rtibia 20.9254
rfoot -0.391187 -18.5182
rtoes -6.61413
lfemur -1.82052 -8.16335 -19.9419
ltibia 30.8528
lfoot -4.0099 6.60366
ltoes -16.0522
1180
root 5.18651 16.6391 -3.23192 7.4312 -42.0977 -0.602769
lowerback -2.79746 -1.05069 -0.790553
upperback -12.3842 -1.57009 1.9027
thorax -11.6185 -0.680958 2.63317
lowerneck -3.11922 2.18132 -2.90552
upperneck 3.80189 2.77516 6.42416
head 1.60676 1.47503 2.62499
rclavicle -1.70955e-014 7.95139e-016
rhumerus -50.5108 -23.4778 33.0291
rradius 28.106
rwrist -64.2078
rhand -36.1637 7.19595
rfingers 7.12502
rthumb -9.26773 -22.5804
lclavicle -1.70955e-014 7.95139e-016
lhumerus -51.126 43.2104 -39.5122
lradius 25.4439
lwrist -9.06334
lhand 5.61569 58.1087
lfingers 7.12502
lthumb 30.9571 445.518
rfemur -22.529 25.9114 14.9273
rtibia 20.7971
rfoot -0.648726 -18.467
rtoes -4.96121
lfemur -1.75293 -8.49377 -19.757
ltibia 30.7607
lfoot -4.28806 6.94727
ltoes -16.2521
1181
root 5.19612 16.6379 -3.23015 7.49348 -42.0812 -0.723734
lowerback -2.83946 -0.955049 -0.635789
upperback -12.3451 -1.44243 1.789
thorax -11.5584 -0.641953 2.41201
lowerneck -3.05127 2.08405 -2.59962
upperneck 3.42146 2.6556 6.19337
head 1.4826 1.41008 2.48103
rclavicle -6.85807e-014 -4.41302e-014
rhumerus -52.6197 -25.1577 36.8771
rradius 27.4296
rwrist -61.2151
rhand -41.7669 8.89733
rfingers 7.12502
rthumb -14.6706 -20.5637
lclavicle -6.85807e-014 -4.41302e-014
lhumerus -54.2655 45.5747 -44.599
lradius 24.8934
lwrist -12.4624
lhand 1.51927 61.3568
lfingers 7.12502
lthumb 27.0447 449.44
rfemur -22.3697 25.7361 15.0385
rtibia 20.536
rfoot -0.797362 -18.2878
rtoes -3.78702
lfemur -1.67393 -8.804 -19.761
ltibia 30.7496
lfoot -4.82 7.34322
ltoes -13.8766
1182
root 5.20805 16.6364 -3.23199 7.68993 -42.1373 -0.908411
lowerback -3.04855 -0.861453 -0.519535
upperback -12.2885 -1.3128 1.76656
thorax -11.3734 -0.59432 2.30587
lowerneck -3.15476 2.02219 -2.55335
upperneck 3.24628 2.57859 6.21025
head 1.44873 1.37211 2.47578
rclavicle 1.25234e-014 1.43125e-014
rhumerus -54.6073 -26.8811 40.8468
rradius 26.66
rwrist -58.1479
rhand -46.9003 13.3469
rfingers 7.12502
rthumb -19.6114 -15.6839
lclavicle 1.25234e-014 1.43125e-014
lhumerus -58.8119 48.4806 -51.2758
lradius 24.3288
lwrist -16.7199
lhand -1.69374 64.0598
lfingers 7.12502
lthumb 23.9671 627.416
rfemur -22.3742 25.6369 15.1339
rtibia 20.2461
rfoot -0.625281 -18.0638
rtoes -3.76856
lfemur -1.7526 -9.01383 -19.6455
ltibia 30.7173
lfoot -5.42002 7.53438
ltoes -8.88331
1183
root 5.21939 16.6355 -3.23304 8.01027 -42.2498 -1.29274
lowerback -3.25286 -0.849766 -0.349449
upperback -12.3081 -1.28605 1.87534
thorax -11.2752 -0.594281 2.32183
lowerneck -3.0239 2.10849 -2.30768
upperneck 3.23775 2.69062 5.97902
head 1.42143 1.42495 2.35347
rclavicle 1.0138e-014 1.74931e-014
rhumerus -56.2364 -28.591 44.4692
rradius 26.0315
rwrist -55.3731
rhand -51.8304 21.6802
rfingers 7.12502
rthumb -24.3449 -6.7936
lclavicle 1.0138e-014 1.74931e-014
lhumerus -63.2683 50.2341 -57.7851
lradius 23.839
lwrist -20.3602
lhand -4.20891 67.174
lfingers 7.12502
lthumb 21.5533 624.005
rfemur -22.4396 25.5451 15.4008
rtibia 20.1119
rfoot -0.369263 -17.8136
rtoes -4.83728
lfemur -1.75914 -9.09341 -19.3799
ltibia 30.5837
lfoot -5.88161 7.53709
ltoes -5.76374
1184
root 5.23116 16.6363 -3.2308 8.0912 -42.3257 -1.38171
lowerback -3.36596 -0.850997 -0.357205
upperback -12.4132 -1.28868 1.93699
thorax -11.3292 -0.592221 2.39373
lowerneck -2.75135 2.22416 -2.13053
upperneck 3.32455 2.83932 5.78418
head 1.39773 1.49512 2.25552
rclavicle -1.68967e-014 -3.69739e-014
rhumerus -57.6062 -29.9845 47.6563
rradius 25.7193
rwrist -53.1192
rhand -56.5413 32.4713
rfingers 7.12502
rthumb -28.8534 4.68248
lclavicle -1.68967e-014 -3.69739e-014
lhumerus -66.9167 51.3359 -63.2805
lradius 23.3715
lwrist -23.0218
lhand -6.6997 70.7032
lfingers 7.12502
lthumb 19.1596 620.221
rfemur -22.5176 25.3033 15.4728
rtibia 20.1788
rfoot -0.434196 -17.5339
rtoes -5.63436
lfemur -1.60831 -9.21084 -19.4195
ltibia 30.2712
lfoot -6.08549 7.7403
ltoes -5.37528
1185
root 5.24339 16.6333 -3.22661 7.81642 -42.3738 -1.01538
lowerback -3.5084 -0.843892 -0.626379
upperback -12.4755 -1.29742 1.86221
thorax -11.313 -0.575405 2.46184
lowerneck -2.62352 2.26031 -2.31203
upperneck 3.42787 2.8836 5.95865
head 1.40274 1.51727 2.34572
rclavicle 2.10712e-014 -8.34896e-015
rhumerus -58.5741 -30.4824 49.6995
rradius 25.54
rwrist -51.581
rhand -59.1176 45.5799
rfingers 7.12502
rthumb -31.3114 18.2382
lclavicle 2.10712e-014 -8.34896e-015
lhumerus -70.3677 52.3976 -68.3208
lradius 23.0849
lwrist -24.9569
lhand -8.66768 74.0813
lfingers 7.12502
lthumb 17.2663 616.666
rfemur -22.6355 25.0214 15.1774
rtibia 20.4098
rfoot -0.853151 -17.3594
rtoes -4.93595
lfemur -1.28744 -9.34818 -19.8526
ltibia 29.7727
lfoot -6.24865 8.17139
ltoes -5.38074
